<svg xmlns="http://www.w3.org/2000/svg" xmlns:xlink="http://www.w3.org/1999/xlink" width="500" zoomAndPan="magnify" viewBox="0 0 375 374.999991" height="500" preserveAspectRatio="xMidYMid meet" version="1.0"><defs><clipPath id="021537d1fc"><path d="M 16.578125 37.5 L 358.578125 37.5 L 358.578125 329.25 L 16.578125 329.25 Z M 16.578125 37.5 " clip-rule="nonzero"/></clipPath></defs><rect x="-37.5" width="450" fill="#ffffff" y="-37.499999" height="449.999989" fill-opacity="1"/><rect x="-37.5" width="450" fill="#ffffff" y="-37.499999" height="449.999989" fill-opacity="1"/><rect x="-37.5" width="450" fill="#2f3336" y="-37.499999" height="449.999989" fill-opacity="1"/><g clip-path="url(#021537d1fc)"><path fill="#ffffff" d="M 254.492188 296.691406 L 287.0625 329.234375 L 358.578125 329.234375 L 287.742188 258.457031 C 300.9375 236.519531 308.53125 210.835938 308.53125 183.398438 C 308.53125 102.84375 243.199219 37.515625 162.578125 37.515625 C 154.789062 37.515625 147.195312 38.148438 139.746094 39.265625 L 192.808594 92.335938 C 231.027344 104.984375 258.582031 140.980469 258.582031 183.398438 C 258.582031 196.921875 255.757812 209.8125 250.695312 221.488281 L 230.78125 201.59375 L 159.316406 201.59375 L 218.855469 261.085938 Z M 162.578125 329.234375 L 226.0625 329.234375 L 215.984375 319.164062 L 175.234375 278.5 C 171.097656 279.035156 166.863281 279.324219 162.578125 279.324219 C 109.511719 279.324219 66.527344 236.371094 66.527344 183.398438 C 66.527344 143.949219 90.332031 110.09375 124.363281 95.351562 L 87.363281 58.335938 C 44.960938 83.875 16.578125 130.328125 16.578125 183.398438 C 16.578125 263.953125 81.957031 329.234375 162.578125 329.234375 Z M 162.578125 329.234375 " fill-opacity="1" fill-rule="evenodd"/></g></svg>